{
  "asset": {
    "generator": "glTF-Transform v4.2.0",
    "version": "2.0"
  },
  "accessors": [
    {
      "type": "SCALAR",
      "componentType": 5123,
      "count": 119910,
      "bufferView": 0,
      "byteOffset": 0
    },
    {
      "type": "VEC3",
      "componentType": 5126,
      "count": 19811,
      "max": [
        0.9781236052513123,
        0.30801627039909363,
        0.9913556575775146
      ],
      "min": [
        -0.9996488690376282,
        -0.43396666646003723,
        -0.994903564453125
      ],
      "bufferView": 1,
      "byteOffset": 0
    }
  ],
  "bufferViews": [
    {
      "buffer": 0,
      "byteOffset": 0,
      "byteLength": 239820,
      "target": 34963
    },
    {
      "buffer": 0,
      "byteOffset": 239824,
      "byteLength": 237732,
      "byteStride": 12,
      "target": 34962
    }
  ],
  "buffers": [
    {
      "name": "olive-processed",
      "byteLength": 477560,
      "uri": "data:application/octet-stream;base64,"
    }
  ],
  "meshes": [
    {
      "name": "geometry_0",
      "extras": {
        "processed": true
      },
      "primitives": [
        {
          "attributes": {
            "POSITION": 1
          },
          "mode": 4,
          "indices": 0,
          "material": 0
        }
      ]
    }
  ],
  "nodes": [
    {
      "name": "geometry_0",
      "mesh": 0
    }
  ],
  "scenes": [
    {
      "nodes": [
        0
      ]
    }
  ],
  "scene": 0,
  "materials": [
    {
      "name": "default",
      "emissiveFactor": [
        0,
        0,
        0
      ],
      "alphaMode": "OPAQUE",
      "doubleSided": false
    }
  ]
}
